HIERARCHY
ROOT Root
{
  OFFSET 8.93557 11.8871 -0.956729
  CHANNELS 6 Xposition Yposition Zposition Zrotation Xrotation Yrotation
  JOINT Spine
  {
    OFFSET 5.3114 0 0
    CHANNELS 3 Zrotation Xrotation Yrotation
    JOINT Spine1
    {
      OFFSET 2.79004 0 0
      CHANNELS 3 Zrotation Xrotation Yrotation
      JOINT Neck
      {
        OFFSET 1.43377 0 0
        CHANNELS 3 Zrotation Xrotation Yrotation
        JOINT Head
        {
          OFFSET 1.86043 0 0
          CHANNELS 3 Zrotation Xrotation Yrotation
          End Site
          {
            OFFSET 0 0 0
          }
        }
      }
      JOINT LeftArm
      {
        OFFSET 0.0387506 0 2.55754
        CHANNELS 3 Zrotation Xrotation Yrotation
        JOINT LeftForeArm
        {
          OFFSET 4.24845 0 0
          CHANNELS 3 Zrotation Xrotation Yrotation
          JOINT LeftHand
          {
            OFFSET 4.01008 0 0
            CHANNELS 3 Zrotation Xrotation Yrotation
            End Site
            {
              OFFSET 0 0 0
            }
          }
        }
      }
      JOINT RightArm
      {
        OFFSET 0.0387506 0 -2.55754
        CHANNELS 3 Zrotation Xrotation Yrotation
        JOINT RightForeArm
        {
          OFFSET -4.24845 0 0
          CHANNELS 3 Zrotation Xrotation Yrotation
          JOINT RightHand
          {
            OFFSET -4.01009 0 0
            CHANNELS 3 Zrotation Xrotation Yrotation
            End Site
            {
              OFFSET 0 0 0
            }
          }
        }
      }
    }
  }
  JOINT LeftUpLeg
  {
    OFFSET -1.23318 0 2.05692
    CHANNELS 3 Zrotation Xrotation Yrotation
    JOINT LeftLeg
    {
      OFFSET 5.46397 0 0
      CHANNELS 3 Zrotation Xrotation Yrotation
      JOINT LeftFoot
      {
        OFFSET 4.68898 0 0
        CHANNELS 3 Zrotation Xrotation Yrotation
        End Site
        {
          OFFSET 0 0 0
        }
      }
    }
  }
  JOINT RightUpLeg
  {
    OFFSET -1.24454 0 -2.05007
    CHANNELS 3 Zrotation Xrotation Yrotation
    JOINT RightLeg
    {
      OFFSET -5.46397 0 0
      CHANNELS 3 Zrotation Xrotation Yrotation
      JOINT RightFoot
      {
        OFFSET -4.68901 0 0
        CHANNELS 3 Zrotation Xrotation Yrotation
        End Site
        {
          OFFSET 0 0 0
        }
      }
    }
  }
}
MOTION
Frames:	15
Frame Time:	0.0416667
8.93557 11.8871 -0.956729 -0 90 90 9.69808e-018 1.34041e-020 0.158382 1.41245e-030 7.06225e-031 2.48481e-017 -7.30747e-017 7.61111e-019 -1.19349 3.40995e-017 1.65719e-019 0.556895 -2.12238e-008 -1.53545e-005 -90.1584 -2.50273e-005 -2.47192e-012 6.55612e-006 1.52588e-005 -6.98387e-015 174.455 180 -4.60993e-005 -89.8417 -5.49628e-005 -2.25992e-011 3.612e-005 1.52588e-005 6.98387e-015 174.455 -3.97062 -0.250227 -175.995 -8.61247 0.176934 -0.869882 4.63581 -0.0779626 176.868 177.974 -0.12598 -176.037 -4.39437 0.0840506 -0.877287 2.36563 -0.0334036 176.598 
8.81997 11.9111 -1.50075 100.493 -8.24211 2.05408 -7.48658 -0.133249 0.224991 6.47326 0.0510032 2.05769 -18.156 1.06911 -4.30337 26.1808 1.65927 1.3434 -5.53862 -38.8289 179.192 29.5215 1.56312 17.0972 -1.41573 -15.7683 174.257 179.188 -14.5429 -177.66 32.9828 2.28996 19.0404 1.57885 17.4785 174.21 -17.6503 -2.89776 178.648 -36.2173 -1.06651 -1.34603 23.9331 -0.745179 177.913 156.911 -3.95486 178.244 -35.8087 -1.00747 -1.38353 8.52241 10.9519 175.824 
8.81087 11.8807 -1.53487 100.025 -0.668741 1.99983 -6.68701 -0.0118462 0.753259 5.78482 0.0691557 1.61698 -17.1829 0.817505 -4.30668 24.0509 1.17266 1.56805 -0.403722 -36.4417 -173.202 27.7757 1.50103 16.066 -1.32748 -14.8256 174.282 -178.629 -14.9123 -170.199 33.5731 2.80525 19.2796 1.34485 15.0168 174.277 -20.0757 -0.750097 179.589 -39.7976 -1.0415 -1.43019 21.6917 0.278586 177.493 157.544 -3.24092 178.454 -34.9383 -0.965868 -1.37838 9.27862 10.2401 175.743 
8.77595 11.8617 -1.59375 99.9922 -0.0910014 2.08536 -6.0803 0.301763 1.2501 5.80732 0.155055 1.41918 -16.9867 0.606254 -4.36727 23.4522 0.731378 1.56222 0.222826 -36.5157 -173.061 28.5371 1.65316 16.493 -1.3393 -14.9415 174.279 -178.149 -15.9791 -168.668 36.0268 3.45894 20.6102 1.22254 13.7056 174.308 -22.9073 0.634464 -179.993 -45.2333 -1.11145 -1.56155 21.3805 -0.917504 177.883 157.46 -3.14028 178.245 -35.6986 -0.986723 -1.39591 10.1075 10.2646 175.651 
8.72455 11.8593 -1.65185 99.8214 0.360914 2.23415 -5.32256 0.505696 1.38964 5.67949 0.206533 1.31212 -16.7578 0.455221 -4.23747 23.1653 0.500302 1.68567 1.00321 -36.311 -172.743 29.1111 1.77122 16.8141 -1.3736 -15.2743 174.27 -177.823 -17.12 -167.329 38.3612 4.13728 21.8563 1.05666 11.904 174.345 -25.3402 1.26479 -179.781 -49.1908 -1.18406 -1.66593 22.4936 -2.61474 178.48 157.881 -3.17729 178.086 -35.9698 -0.98856 -1.40658 10.7193 10.1009 175.632 
8.64924 11.8567 -1.70503 99.8789 0.966711 2.35967 -5.07317 0.684739 1.45684 5.61462 0.261906 1.41755 -16.5812 0.369944 -4.65438 23.6865 0.351668 2.3262 1.52862 -36.1375 -172.699 28.985 1.74508 16.7436 -1.29523 -14.5215 174.29 -177.591 -17.5887 -166.115 40.4913 4.80349 22.9755 0.965127 10.8975 174.363 -27.9601 1.35338 -179.732 -51.114 -1.22974 -1.71877 23.1844 -4.03733 179.024 158.242 -3.3598 177.867 -36.0736 -0.995881 -1.40587 11.776 10.1965 175.495 
8.55276 11.8526 -1.74994 100.056 1.58693 2.48059 -5.07109 0.726349 1.45697 5.94627 0.274537 1.37395 -16.6392 0.328223 -4.66419 24.3528 0.299678 2.46418 1.71233 -35.8926 -172.409 28.5384 1.65311 16.4939 -1.32901 -14.8511 174.281 -178.173 -17.6406 -165.639 42.4572 5.45768 23.9921 0.871672 9.86481 174.38 -30.674 1.11362 -179.868 -50.8447 -1.22037 -1.71132 22.0479 -4.49296 179.132 158.772 -3.54436 177.723 -35.9123 -0.993925 -1.40333 12.8294 9.77696 175.468 
8.43609 11.8536 -1.78708 100.388 1.88184 2.61183 -5.14718 0.926129 1.47005 6.01506 0.327987 1.28053 -16.694 0.301023 -4.57487 25.1713 0.271979 2.44192 2.24709 -35.7457 -172.15 28.2823 1.60137 16.3502 -1.41382 -15.6698 174.258 -178.19 -18.0154 -165.353 44.4332 6.15446 24.9957 0.732364 8.31406 174.403 -33.1894 0.55498 179.87 -48.3014 -1.18124 -1.64289 20.5832 -4.24935 178.995 159.359 -3.37497 177.773 -35.431 -0.981627 -1.39262 13.3341 9.71408 175.468 
8.30483 11.8683 -1.82212 100.736 2.05168 2.68539 -5.1579 1.34216 1.50555 5.6767 0.447406 1.33841 -16.4189 0.183158 -4.84567 25.9654 0.0154667 2.64163 2.85107 -35.5865 -172.177 27.8121 1.50821 16.0863 -1.38993 -15.4435 174.265 -177.926 -18.118 -165.211 46.2823 6.83955 25.9191 0.578684 6.58855 174.424 -35.1171 -0.156125 179.674 -43.9465 -1.12417 -1.53157 19.058 -4.30379 178.955 160.333 -3.29903 177.728 -34.2328 -0.958582 -1.36714 13.7399 9.35856 175.528 
8.1586 11.8977 -1.85361 100.894 1.76783 2.82445 -4.80231 1.72882 1.45293 5.7469 0.545298 1.1026 -16.7288 0.173207 -4.42751 27.0355 0.0541396 2.3944 3.06758 -34.6347 -172.124 27.47 1.44178 15.8941 -1.3271 -14.841 174.281 -178.392 -18.9713 -165.259 47.5658 7.33416 26.55 0.481209 5.48176 174.435 -36.2106 -1.11729 179.391 -38.4631 -1.05772 -1.4007 18.1017 -5.38264 179.252 161.775 -3.5388 177.697 -32.5408 -0.926132 -1.32831 13.8164 9.03529 175.629 
7.99889 11.9325 -1.87971 100.996 1.45095 2.91861 -4.6437 1.99988 1.3936 5.96748 0.623654 1.12159 -16.8818 0.200936 -4.32898 28.5679 0.128999 2.37398 3.16842 -34.1841 -172.364 27.1992 1.39026 15.7415 -1.31962 -14.7704 174.283 -178.946 -19.8591 -165.435 47.9507 7.48574 26.7372 0.53856 6.09398 174.428 -36.8386 -1.91259 179.196 -32.6417 -0.976939 -1.27094 17.0436 -6.17965 179.45 163.635 -3.68363 177.666 -30.3465 -0.887708 -1.26863 13.5968 8.56995 175.786 
7.8348 11.9392 -1.90013 101.226 1.38021 2.90291 -4.55555 2.03428 1.43146 5.6926 0.621428 0.899687 -16.7511 0.129325 -4.01862 30.2094 0.0374491 2.2629 4.11951 -34.2124 -172.184 27.2191 1.39388 15.7528 -1.35846 -15.1455 174.272 -179.084 -20.7725 -166.009 48.3262 7.63513 26.9191 0.561734 6.38647 174.425 -37.7702 -2.55132 178.921 -27.2617 -0.88757 -1.15295 15.6905 -6.13894 179.375 165.147 -3.44321 177.623 -28.6165 -0.854924 -1.21887 13.4164 8.54998 175.864 
7.66467 11.943 -1.91707 101.545 1.05381 2.75198 -4.59379 2.23944 1.55079 5.71271 0.680941 0.893726 -16.6333 0.093795 -3.92167 31.2492 -0.0371616 2.19566 4.23909 -34.0614 -172.475 27.0741 1.36643 15.6711 -1.35496 -15.111 174.273 -179.375 -21.2966 -166.605 48.5833 7.73788 27.0434 0.584952 6.64682 174.422 -38.9942 -2.76722 178.903 -23.4534 -0.793036 -1.08037 13.3653 -6.2058 179.189 166.652 -3.43673 177.411 -26.5957 -0.81926 -1.16338 13.0555 8.19896 176.013 
7.48517 11.9407 -1.92852 101.538 0.651809 2.55338 -4.30628 2.31771 1.70288 5.92574 0.707113 0.959691 -16.6924 0.118242 -4.24338 31.7743 -0.00367676 2.51377 4.07867 -33.8447 -172.878 27.085 1.3685 15.6772 -1.35481 -15.1072 174.273 -179.682 -21.8897 -167.116 48.443 7.68166 26.9756 0.617468 6.98961 174.418 -39.5232 -3.82645 178.772 -20.5758 -0.722012 -1.03662 12.0081 -7.35899 179.33 168.522 -3.32932 177.192 -24.7454 -0.790209 -1.12001 12.6131 8.02916 176.118 
7.29644 11.9298 -1.93393 101.584 0.0100761 2.36675 -4.17793 2.296 1.76322 5.97304 0.708217 1.11195 -16.7073 0.211659 -4.54905 32.3459 0.114719 2.62303 4.11443 -33.4976 -173.246 27.1088 1.373 15.6906 -1.36613 -15.212 174.27 -179.591 -22.7709 -167.549 47.9698 7.49344 26.7465 0.62189 7.06069 174.417 -39.7957 -4.77295 178.826 -18.7456 -0.677669 -1.00631 11.5657 -8.6822 179.569 170.123 -3.2028 177.023 -23.2943 -0.765203 -1.09075 12.0665 8.54355 176.095 
